<svg width="10" height="13" viewBox="0 0 10 13" fill="none" xmlns="http://www.w3.org/2000/svg">
<path d="M8.09931 11.7068C7.97357 11.9833 7.7709 12.2177 7.5155 12.3821C7.2601 12.5465 6.96277 12.6339 6.65904 12.6338H1.80451C1.59684 12.6338 1.39119 12.5929 1.19932 12.5135C1.00744 12.434 0.833105 12.3175 0.686256 12.1707C0.539407 12.0238 0.422925 11.8495 0.343464 11.6576C0.264002 11.4658 0.223117 11.2601 0.223145 11.0524V3.97051C0.22297 3.66676 0.310303 3.36939 0.474697 3.11397C0.639092 2.85855 0.873587 2.65589 1.15013 2.53024V10.4461C1.15008 10.6117 1.18265 10.7757 1.24598 10.9287C1.30932 11.0817 1.40217 11.2207 1.51925 11.3378C1.63633 11.4549 1.77533 11.5478 1.92832 11.6112C2.08131 11.6746 2.24529 11.7072 2.41089 11.7072L8.09931 11.7068ZM5.91031 3.88514V0.785645H3.4078C3.20005 0.785644 2.99434 0.826584 2.80243 0.906123C2.61051 0.985662 2.43615 1.10224 2.28931 1.2492C2.14247 1.39616 2.02603 1.57061 1.94664 1.76259C1.86725 1.95457 1.82648 2.16031 1.82664 2.36806V9.93884C1.82681 10.2284 1.94196 10.5061 2.14679 10.7108C2.35162 10.9155 2.62936 11.0305 2.91895 11.0305H8.26254C8.47021 11.0305 8.67584 10.9896 8.8677 10.9101C9.05956 10.8307 9.23389 10.7142 9.38073 10.5673C9.52758 10.4205 9.64406 10.2462 9.72353 10.0543C9.803 9.86246 9.84391 9.65682 9.84391 9.44915V4.83905H6.86339C6.61054 4.83883 6.36813 4.73823 6.18941 4.55936C6.0107 4.38049 5.91031 4.13799 5.91031 3.88514ZM6.45782 0.785645L9.84412 4.30448H6.94835C6.81825 4.30448 6.69348 4.2528 6.60149 4.16081C6.5095 4.06882 6.45782 3.94405 6.45782 3.81396V0.785645Z" fill="#0A0B0B"/>
</svg>
