<svg width="50" height="50" viewBox="0 0 50 50" fill="none" xmlns="http://www.w3.org/2000/svg">
<path d="M4.9953 33.9323C3.5919 30.9995 2.88035 27.8526 2.88035 24.579C2.88035 12.6143 12.6143 2.88035 24.579 2.88035C29.3326 2.88035 33.8521 4.39955 37.5852 7.20655L33.9935 7.67941C33.205 7.7832 32.6499 8.50664 32.7536 9.29519C32.8574 10.0838 33.5809 10.6389 34.3694 10.5351L41.1286 9.64525C41.9171 9.54146 42.4722 8.81801 42.3685 8.02946L41.4785 1.27043C41.3747 0.481883 40.6513 -0.073257 39.8627 0.0305317H39.8626C39.0741 0.13432 38.519 0.857769 38.6228 1.64631L39.0231 4.68729C34.8512 1.6443 29.8418 0 24.579 0C18.0137 0 11.8414 2.5566 7.19896 7.19896C2.5567 11.8414 0 18.0137 0 24.579C0 28.2864 0.806499 31.8516 2.39722 35.1756C2.74056 35.8931 3.60044 36.1964 4.31794 35.8531C5.03534 35.5098 5.33864 34.6498 4.9953 33.9323Z" fill="#FCD535"/>
<path d="M37.9005 22.4308L38.6205 22.0152C39.3093 21.6175 39.5454 20.7367 39.1476 20.0479L35.7872 14.2275C35.3895 13.5387 34.5087 13.3026 33.8199 13.7004L33.0999 14.1161C31.4466 15.0707 29.3799 13.8774 29.3799 11.9683V11.137C29.3799 10.3416 28.7351 9.69678 27.9398 9.69678H21.2189C20.4236 9.69678 19.7788 10.3416 19.7788 11.137V11.9683C19.7788 13.8774 17.7121 15.0706 16.0588 14.1161L15.3388 13.7004C14.65 13.3027 13.7692 13.5387 13.3715 14.2275L10.0111 20.0479C9.61342 20.7367 9.84941 21.6175 10.5382 22.0152L11.2582 22.4308C12.9115 23.3854 12.9115 25.7717 11.2582 26.7263L10.5382 27.1419C9.84941 27.5396 9.61332 28.4204 10.0111 29.1092L13.3715 34.9296C13.7692 35.6184 14.65 35.8545 15.3388 35.4567L16.0588 35.041C17.7121 34.0865 19.7788 35.2797 19.7788 37.1888V38.0203C19.7788 38.8156 20.4236 39.4604 21.2189 39.4604H27.9398C28.7351 39.4604 29.3799 38.8156 29.3799 38.0203V37.1889C29.3799 35.2798 31.4466 34.0867 33.0999 35.0411L33.8199 35.4568C34.5087 35.8545 35.3895 35.6185 35.7872 34.9297L39.1476 29.1093C39.5453 28.4205 39.3093 27.5397 38.6205 27.142L37.9005 26.7264C36.2472 25.7718 36.2472 23.3854 37.9005 22.4308ZM24.5793 30.0993C21.5304 30.0993 19.0587 27.6276 19.0587 24.5786C19.0587 21.5297 21.5304 19.0579 24.5793 19.0579C27.6283 19.0579 30.1 21.5297 30.1 24.5786C30.1 27.6276 27.6283 30.0993 24.5793 30.0993Z" fill="#FCD535"/>
<path d="M46.7611 13.9825C46.4177 13.265 45.5578 12.9617 44.8403 13.305C44.1229 13.6483 43.8196 14.5082 44.1629 15.2257C45.5664 18.1586 46.2779 21.3055 46.2779 24.5791C46.2779 36.5438 36.544 46.2777 24.5793 46.2777C19.8257 46.2777 15.3062 44.7585 11.5731 41.9515L15.1647 41.4787C15.9533 41.3749 16.5084 40.6514 16.4046 39.8629C16.3008 39.0743 15.5774 38.5192 14.7888 38.623L8.02972 39.5128C7.24117 39.6166 6.68603 40.3401 6.78982 41.1286L7.67975 47.8877C7.78354 48.6762 8.50699 49.2313 9.29554 49.1276C10.0841 49.0238 10.6393 48.3003 10.5355 47.5118L10.1352 44.4708C14.3071 47.5138 19.3165 49.1581 24.5793 49.1581C31.1446 49.1581 37.3169 46.6015 41.9593 41.9591C46.6016 37.3167 49.1583 31.1444 49.1583 24.5791C49.1583 20.8717 48.3518 17.3065 46.7611 13.9825Z" fill="#FCD535"/>
</svg>
