<svg width="70" height="70" viewBox="0 0 70 70" fill="none" xmlns="http://www.w3.org/2000/svg">
<circle cx="35" cy="35" r="15" fill="#FCE340"/>
<circle cx="35" cy="35" r="15" fill="#FCE340"/>
<circle cx="35" cy="35" r="15" fill="#FCE340"/>
<circle cx="35" cy="35" r="26" fill="#FCD535"/>
<path fill-rule="evenodd" clip-rule="evenodd" d="M24.2953 34.3871C24.2503 34.4321 24.232 34.4837 24.232 34.5276V39.0106C24.232 39.7927 24.8762 40.437 25.6584 40.437H27.4244C27.541 40.437 27.6283 40.3497 27.6283 40.2332V34.5276C27.6283 34.4173 27.5336 34.3238 27.4244 34.3238H24.4359C24.3919 34.3238 24.3403 34.3421 24.2953 34.3871ZM22.1943 34.5276C22.1943 33.2992 23.2075 32.2861 24.4359 32.2861H27.4244C28.6737 32.2861 29.666 33.3065 29.666 34.5276V40.2332C29.666 41.4751 28.6663 42.4747 27.4244 42.4747H25.6584C23.7508 42.4747 22.1943 40.9181 22.1943 39.0106V34.5276Z" fill="#1E1E1C"/>
<path fill-rule="evenodd" clip-rule="evenodd" d="M35.4393 23.4562C30.7447 23.4562 26.9488 27.2521 26.9488 31.9466V33.3187C26.9488 33.8814 26.4927 34.3375 25.93 34.3375C25.3673 34.3375 24.9111 33.8814 24.9111 33.3187V31.9466C24.9111 26.1266 29.6193 21.4185 35.4393 21.4185C41.2593 21.4185 45.9675 26.1266 45.9675 31.9466V33.3051C45.9675 33.8678 45.5113 34.324 44.9487 34.324C44.3859 34.324 43.9298 33.8678 43.9298 33.3051V31.9466C43.9298 27.2521 40.1339 23.4562 35.4393 23.4562Z" fill="#1E1E1C"/>
<path fill-rule="evenodd" clip-rule="evenodd" d="M45.0138 40.4567C45.5655 40.5675 45.9229 41.1045 45.8121 41.6562C45.0934 45.2337 41.9387 47.9219 38.1566 47.9219H36.7982C36.2354 47.9219 35.7793 47.4658 35.7793 46.903C35.7793 46.3403 36.2354 45.8842 36.7982 45.8842H38.1566C40.9495 45.8842 43.2831 43.8991 43.8142 41.2549C43.9251 40.7032 44.4621 40.3458 45.0138 40.4567Z" fill="#1E1E1C"/>
<path fill-rule="evenodd" clip-rule="evenodd" d="M43.3139 34.3871C43.2689 34.4321 43.2506 34.4837 43.2506 34.5276V40.2332C43.2506 40.3435 43.3452 40.437 43.4545 40.437H45.1525C45.9754 40.437 46.6468 39.7656 46.6468 38.9426V34.5276C46.6468 34.4173 46.5523 34.3238 46.443 34.3238H43.4545C43.4105 34.3238 43.3589 34.3421 43.3139 34.3871ZM41.2129 34.5276C41.2129 33.2992 42.2261 32.2861 43.4545 32.2861H46.443C47.6922 32.2861 48.6845 33.3065 48.6845 34.5276V38.9426C48.6845 40.891 47.1009 42.4747 45.1525 42.4747H43.4545C42.2052 42.4747 41.2129 41.4542 41.2129 40.2332V34.5276Z" fill="#1E1E1C"/>
</svg>
