<svg width="209" height="42" viewBox="0 0 209 42" fill="none" xmlns="http://www.w3.org/2000/svg">
<g clip-path="url(#clip0_2386_5498)">
<path d="M32.9948 23.6648L20.9771 29.6753L8.96167 23.6648L20.9771 26.1433L32.9948 23.6648Z" fill="#E5EF0C"/>
<path d="M29.5571 31.0979L25.1879 42H16.4459L12.0767 31.0979L16.5973 39.5636H25.0364L29.5571 31.0979Z" fill="#F0B90B"/>
<path d="M41.9551 23.8271L35.9919 17.8014V0L26.6373 9.4526H15.1571L5.80369 0V17.9626L0 23.8271L8.90146 32.823L3.21451 23.8692L15.6333 12.3364H26.3218L38.7395 23.8692L33.0537 32.823L41.954 23.8271H41.9551ZM7.37801 16.3718V3.84037L13.5793 10.1067L7.37801 16.3718ZM34.4164 3.84037V16.2095L28.296 10.0249L34.4164 3.84037Z" fill="#F0B90B"/>
<path d="M66.5777 29.6753L66.5372 25.029H54.0733L54.1138 29.6753H50.8068L50.7664 18.5887C50.7664 15.9396 53.1463 13.738 56.0904 13.738H64.5202C67.4238 13.738 69.8038 15.9385 69.8038 18.5887L69.8442 29.6753H66.5765H66.5777ZM66.5372 22.095V18.5898C66.5372 17.5713 65.6091 16.6743 64.5202 16.6743H56.0904C54.9611 16.6743 54.0733 17.5713 54.0733 18.5898V22.095H66.5372Z" fill="#F0B90B"/>
<path d="M72.749 13.6574H76.056L76.0965 29.6753H72.7895L72.749 13.6574Z" fill="#F0B90B"/>
<path d="M94.6911 21.0753V24.7849C94.6911 27.5157 92.3111 29.6753 89.4076 29.6753H81.9856L81.9452 33.7107H78.6382V16.1849H89.3671C92.2707 16.1849 94.6911 18.3457 94.6911 21.0753ZM91.4234 21.0753C91.4234 20.016 90.4952 19.2007 89.3659 19.2007H81.944V26.6186H89.3659C90.4952 26.6186 91.4234 25.8851 91.4234 24.7849V21.0753Z" fill="#F0B90B"/>
<path d="M112.962 29.6753H109.695L109.654 21.0345C109.654 20.016 108.726 19.1598 107.597 19.1598H100.175L100.215 29.6753H96.9081L96.8677 13.6574H100.175V16.1838H107.597C110.5 16.1838 112.921 18.3843 112.921 21.0345L112.961 29.6753H112.962Z" fill="#F0B90B"/>
<path d="M131.356 21.0753L131.396 29.6753H120.708C117.803 29.6753 115.343 27.6371 115.343 25.029C115.343 22.4209 117.764 20.4645 120.667 20.4645H128.008C127.726 19.6901 126.96 19.2416 125.991 19.2416H116.996V16.2258H125.991C128.976 16.2258 131.356 18.3866 131.356 21.0765V21.0753ZM128.088 26.6595V23.3985H120.666C119.537 23.3985 118.609 24.132 118.609 25.029C118.609 25.926 119.537 26.6595 120.666 26.6595H128.088Z" fill="#F0B90B"/>
<path d="M147.772 29.6753H134.018L133.977 13.7391H147.731C150.635 13.7391 153.015 15.532 153.015 17.8155C153.015 18.8748 152.49 19.8536 151.644 20.5462C152.491 21.3615 153.015 22.5435 153.015 23.9287V24.8258C153.015 27.4339 150.675 29.6765 147.772 29.6765V29.6753ZM137.284 16.6743V18.9157H147.731C148.901 18.9157 149.748 18.3037 149.748 17.8155C149.748 17.2852 148.901 16.6743 147.731 16.6743H137.284ZM149.748 23.9287C149.748 22.7467 148.82 21.8906 147.731 21.8906H137.284V26.6595H147.731C148.82 26.6595 149.748 25.8034 149.748 24.8258V23.9287Z" fill="#F0B90B"/>
<path d="M171.609 21.0753L171.65 29.6753H160.961C158.057 29.6753 155.597 27.6371 155.597 25.029C155.597 22.4209 158.017 20.4645 160.921 20.4645H168.262C167.98 19.6901 167.214 19.2416 166.245 19.2416H157.25V16.2258H166.245C169.229 16.2258 171.609 18.3866 171.609 21.0765V21.0753ZM168.342 26.6595V23.3985H160.92C159.79 23.3985 158.862 24.132 158.862 25.029C158.862 25.926 159.79 26.6595 160.92 26.6595H168.342Z" fill="#F0B90B"/>
<path d="M190.123 20.9539H186.856V19.6095C186.574 19.4051 185.807 19.2427 184.798 19.2427H179.393C178.264 19.2427 177.376 20.0171 177.376 21.0765V24.8269C177.376 25.9272 178.264 26.6607 179.393 26.6607H184.798C185.806 26.6607 186.572 26.4563 186.856 26.3757V24.9496H190.123V26.5801C190.123 28.4139 187.865 29.6776 184.84 29.6776H179.435C176.491 29.6776 174.07 27.5577 174.07 24.8269V21.0765C174.07 18.3866 176.45 16.2258 179.394 16.2258H184.799C187.824 16.2258 190.123 17.5702 190.123 19.3233V20.9539Z" fill="#F0B90B"/>
<path d="M208.234 25.8443V29.7571H204.966V25.8443C204.966 24.7849 203.997 24.0105 202.868 24.0105H195.849V29.7571H192.542V13.78H195.849V21.0753H198.27C199.884 21.0753 202.142 20.0568 203.11 18.9554L206.497 15.2061L208.999 17.1217L205.651 20.7903C205.41 21.0753 205.248 21.2797 205.047 21.3615C206.902 22.1768 208.234 23.847 208.234 25.8443Z" fill="#F0B90B"/>
</g>
<defs>
<clipPath id="clip0_2386_5498">
<rect width="209" height="42" fill="white"/>
</clipPath>
</defs>
</svg>
