<svg width="50" height="50" viewBox="0 0 50 50" fill="none" xmlns="http://www.w3.org/2000/svg">
<path d="M24.5343 0C11.016 0 0 10.9965 0 24.5343C0 38.0722 10.9965 49.0687 24.5343 49.0687C38.0722 49.0687 49.0687 38.0722 49.0687 24.5343C49.0687 10.9965 38.0526 0 24.5343 0ZM32.7548 33.527C32.227 34.524 31.5036 35.3548 30.6337 36.0195C29.754 36.6646 28.7765 37.1436 27.6818 37.4759C27.3787 37.5639 27.066 37.6519 26.7532 37.7008V39.1767C26.7532 40.4083 25.7562 41.4053 24.5246 41.4053C23.2929 41.4053 22.2764 40.4083 22.2764 39.1572V37.8083C21.5922 37.7008 20.9079 37.5639 20.253 37.3684C18.953 36.9774 17.8289 36.3323 16.8124 35.609C16.3725 35.306 15.7958 34.6217 15.7958 34.6217C15.571 34.3969 15.268 34.0255 15.268 33.2337C15.268 32.0901 16.1966 31.142 17.3206 31.1615C18.0733 31.1615 18.7966 31.7773 18.7966 31.7773C19.5297 32.3736 19.9402 32.745 20.6733 33.0578C21.7486 33.5368 22.9899 33.7616 24.3584 33.7616C25.199 33.7616 25.9907 33.6052 26.7336 33.3022C27.4374 32.9992 28.0141 32.5789 28.4735 32.0412C28.8938 31.5134 29.1089 30.8781 29.1089 30.1059C29.1089 29.1089 28.7374 28.2487 28.0043 27.4569C27.2517 26.6652 25.9712 26.1765 24.1727 25.9614C22.4523 25.7855 20.9079 25.3456 19.6079 24.6614C18.2883 23.9772 17.2327 23.0584 16.5191 21.9538C15.7958 20.8493 15.4341 19.5688 15.4341 18.1613C15.4341 16.6364 15.874 15.2973 16.7146 14.1928C17.5552 13.1176 18.6793 12.2769 20.0869 11.7198C20.7906 11.4363 21.514 11.2115 22.2862 11.0747V9.57914C22.2862 8.34754 23.2832 7.35052 24.5148 7.35052C25.7464 7.35052 26.7629 8.34754 26.7629 9.59869V11.0356C27.3201 11.1235 27.8382 11.2604 28.3073 11.4363C29.363 11.8273 30.272 12.3845 31.0247 13.0882C31.445 13.489 31.836 13.9289 32.1879 14.4078C32.2367 14.4762 32.3149 14.5447 32.3638 14.6228C32.5886 14.9356 32.7157 15.3462 32.7157 15.786C32.7157 16.9297 31.5721 17.7507 30.6435 17.8387C29.7638 17.9267 28.9427 16.9297 28.9427 16.9297C28.5713 16.4507 28.1509 16.0499 27.6622 15.7176C26.9291 15.2289 25.893 14.965 24.5734 14.9454C23.1659 14.9259 22.0125 15.2093 21.0937 15.8056C20.253 16.353 19.8425 17.1252 19.8425 18.2101C19.8425 18.7673 19.9696 19.3342 20.2335 19.8621C20.4779 20.3508 20.9666 20.8102 21.6899 21.211C22.4426 21.6313 23.6057 21.9343 25.111 22.1102C27.6427 22.3546 29.6758 23.1659 31.2006 24.5148C32.7646 25.8832 33.5563 27.7502 33.5563 30.0472C33.5465 31.3668 33.2826 32.53 32.7548 33.527Z" fill="#FCD535"/>
</svg>
