<svg width="50" height="50" viewBox="0 0 50 50" fill="none" xmlns="http://www.w3.org/2000/svg">
<path d="M24.5343 0C11.0078 0 0 11.0077 0 24.5343C0 31.3876 2.89503 37.9791 7.94096 42.6079C7.95728 42.6243 7.97366 42.6407 7.99003 42.6488C12.5125 46.7869 18.3844 49.0687 24.5343 49.0687C30.6843 49.0687 36.5562 46.7869 41.0786 42.6488C41.095 42.6407 41.1114 42.6243 41.1277 42.6079C46.1736 37.9791 49.0687 31.3876 49.0687 24.5343C49.0687 11.0077 38.0609 0 24.5343 0ZM24.5343 10.1736C29.2122 10.1736 33.015 13.9845 33.015 18.6543C33.015 23.3321 29.2122 27.135 24.5343 27.135C19.8565 27.135 16.0536 23.3321 16.0536 18.6543C16.0536 13.9845 19.8565 10.1736 24.5343 10.1736ZM40.0155 41.3976C39.9092 41.4957 39.8028 41.5939 39.6965 41.6756C35.5175 45.3967 30.1445 47.433 24.5343 47.433C18.9242 47.433 13.5511 45.3967 9.37213 41.6756C9.26581 41.5939 9.15949 41.4957 9.05317 41.3976C8.67696 41.0541 8.30894 40.6943 7.96547 40.3263C9.50296 33.7674 15.3994 28.9914 22.2853 28.9914H26.7833C33.6693 28.9914 39.5657 33.7674 41.1032 40.3263C40.7597 40.6943 40.3917 41.0541 40.0155 41.3976Z" fill="#FCD535"/>
</svg>
