<svg width="58" height="50" viewBox="0 0 58 50" fill="none" xmlns="http://www.w3.org/2000/svg">
<path d="M24.5792 10.9731C16.9282 10.9731 10.7256 17.1758 10.7256 24.8268C10.7256 32.4778 16.9282 38.6804 24.5792 38.6804C32.2302 38.6804 38.4328 32.4778 38.4328 24.8268C38.4328 17.1758 32.2302 10.9731 24.5792 10.9731ZM29.4993 30.2223C29.1897 30.8083 28.7696 31.3058 28.2389 31.6928C27.7192 32.0687 27.1443 32.3562 26.503 32.5552C26.3261 32.6105 26.1382 32.6547 25.9613 32.6989V33.5613C25.9613 34.291 25.3642 34.877 24.6456 34.877C23.9158 34.877 23.3298 34.28 23.3298 33.5613V32.7542C22.9208 32.6989 22.5227 32.6105 22.1358 32.4999C21.3618 32.2677 20.7095 31.8807 20.1124 31.4716C19.8581 31.2947 19.5043 30.8967 19.5043 30.8967C19.3717 30.764 19.1948 30.5429 19.1948 30.0785C19.1948 29.4041 19.7365 28.8513 20.411 28.8623C20.8532 28.8623 21.2844 29.2272 21.2844 29.2272C21.7156 29.581 21.9589 29.7911 22.3901 29.979C23.0203 30.2554 23.75 30.3992 24.5571 30.3992C25.0546 30.3992 25.5301 30.3107 25.9502 30.1338C26.3703 29.968 26.7131 29.7137 26.9674 29.3931C27.2217 29.0835 27.3433 28.7076 27.3433 28.2542C27.3433 27.6683 27.1332 27.1486 26.691 26.6842C26.2487 26.2199 25.4969 25.9214 24.4355 25.7997C23.4183 25.6892 22.5117 25.4349 21.7377 25.0368C20.9527 24.6278 20.3446 24.0971 19.9134 23.4447C19.4822 22.7924 19.2722 22.0295 19.2722 21.2113C19.2722 20.3047 19.5265 19.5197 20.035 18.8784C20.5326 18.2482 21.196 17.7507 22.0252 17.419C22.4343 17.2532 22.8655 17.1205 23.3188 17.0431V16.1696C23.3188 15.4399 23.9158 14.8539 24.6345 14.8539C25.3642 14.8539 25.9502 15.451 25.9502 16.1696V17.021C26.2819 17.0763 26.5804 17.1537 26.8679 17.2642C27.487 17.4964 28.0288 17.817 28.4711 18.2372C28.7254 18.4694 28.9465 18.7347 29.1565 19.0111C29.1897 19.0553 29.2229 19.0885 29.2561 19.1327C29.3887 19.3207 29.4661 19.5639 29.4661 19.8182C29.4661 20.4927 28.7917 20.9792 28.2499 21.0344C27.7303 21.0787 27.2438 20.4927 27.2438 20.4927C27.0337 20.2163 26.7794 19.973 26.492 19.774C26.0608 19.4865 25.4416 19.3318 24.6677 19.3096C23.8384 19.2986 23.1529 19.4644 22.6222 19.8072C22.1247 20.1278 21.8815 20.5922 21.8815 21.2224C21.8815 21.5541 21.9589 21.8858 22.1026 22.1954C22.2463 22.4828 22.5338 22.7592 22.965 22.9914C23.4183 23.2457 24.0927 23.4116 24.9772 23.5221C26.4699 23.6659 27.675 24.1413 28.5706 24.9373C29.4882 25.7445 29.9637 26.839 29.9637 28.199C29.9747 28.9397 29.8089 29.6252 29.4993 30.2223Z" fill="#FCD535"/>
<path d="M57.0879 19.6025C56.8623 19.0609 56.3545 18.7224 55.7677 18.7224C55.7677 18.7224 55.7677 18.7224 55.7564 18.7224L48.9071 18.745C47.2822 12.3469 43.2876 6.9532 37.6231 3.55672C31.9359 0.137667 25.2671 -0.855324 18.8352 0.747002C12.4034 2.34933 6.97576 6.36643 3.55672 12.0536C0.137667 17.7407 -0.855324 24.4095 0.747002 30.8414C2.34933 37.2733 6.36643 42.7009 12.0536 46.1199C15.9691 48.467 20.3473 49.6744 24.7932 49.6744C26.813 49.6744 28.8441 49.4261 30.8414 48.9296C36.7429 47.4627 41.8771 43.8857 45.3075 38.8869C45.488 38.6273 45.4203 38.2775 45.1608 38.097C44.9012 37.9165 44.5514 37.9842 44.3709 38.2437C41.0985 43.0281 36.19 46.4359 30.5593 47.8351C24.4208 49.3697 18.0454 48.4106 12.6178 45.1608C7.19016 41.8997 3.36489 36.7204 1.83027 30.5819C-1.31797 17.8987 6.42285 5.00107 19.106 1.84155C25.2445 0.306927 31.62 1.26607 37.0476 4.52714C42.3736 7.72051 46.1538 12.7644 47.7448 18.7562L41.0308 18.7675C40.4441 18.7675 39.9363 19.106 39.7106 19.659C39.4849 20.2006 39.5978 20.8099 40.0153 21.2274L47.4063 28.6636C47.6771 28.9344 48.0382 29.0924 48.4218 29.0924C48.8055 29.0924 49.1779 28.9344 49.4487 28.6636L56.7833 21.171C57.2008 20.7422 57.3136 20.1442 57.0879 19.6025Z" fill="#FCD535"/>
</svg>
